<svg width="128" height="128" viewBox="0 0 128 128" fill="none" xmlns="http://www.w3.org/2000/svg">
    <g clip-path="url(#clip0_1_2)">
        <rect width="128" height="128" fill="none"/>
        <path fill-rule="evenodd" clip-rule="evenodd"
              d="M120.667 67.3333C120.667 96.7883 96.7883 120.667 67.3333 120.667C37.8781 120.667 14 96.7883 14 67.3333C14 37.8781 37.8781 14 67.3333 14C96.7883 14 120.667 37.8781 120.667 67.3333ZM83.3333 51.3333C83.3333 60.1701 76.1701 67.3333 67.3333 67.3333C58.4965 67.3333 51.3333 60.1701 51.3333 51.3333C51.3333 42.4968 58.4965 35.3333 67.3333 35.3333C76.1701 35.3333 83.3333 42.4968 83.3333 51.3333ZM67.3333 112.667C76.848 112.667 85.6784 109.735 92.9701 104.726C96.1909 102.514 97.5669 98.2997 95.6949 94.8704C91.8133 87.7616 83.8144 83.3333 67.3328 83.3333C50.8517 83.3333 42.8532 87.7611 38.9714 94.8704C37.0989 98.2997 38.4752 102.514 41.6958 104.726C48.9876 109.735 57.8181 112.667 67.3333 112.667Z"
              fill="#86198F"/>
        <path fill-rule="evenodd" clip-rule="evenodd"
              d="M117.333 64C117.333 93.4549 93.4549 117.333 64 117.333C34.5448 117.333 10.6667 93.4549 10.6667 64C10.6667 34.5448 34.5448 10.6667 64 10.6667C93.4549 10.6667 117.333 34.5448 117.333 64ZM80 48C80 56.8368 72.8368 64 64 64C55.1632 64 48 56.8368 48 48C48 39.1635 55.1632 32 64 32C72.8368 32 80 39.1635 80 48ZM64 109.333C73.5147 109.333 82.3451 106.402 89.6368 101.393C92.8576 99.1808 94.2336 94.9664 92.3616 91.5371C88.48 84.4283 80.4811 80 63.9995 80C47.5183 80 39.5198 84.4277 35.6381 91.5371C33.7656 94.9664 35.1419 99.1803 38.3624 101.393C45.6543 106.402 54.4848 109.333 64 109.333Z"
              fill="black"/>
    </g>
    <defs>
        <clipPath id="clip0_1_2">
            <rect width="128" height="128" fill="white"/>
        </clipPath>
    </defs>
</svg>
